<svg width="114" height="109" viewBox="0 0 114 109" fill="none" xmlns="http://www.w3.org/2000/svg">
    <rect width="114" height="109" rx="23" fill="#020101" fill-opacity="0.16"/>
    <path d="M42.6931 94.1016L48.7164 99L46.4418 94.9042C42.8533 88.4423 40.9851 81.3171 40.9851 74.0926V50.8528C40.9851 48.8227 41.3486 46.8058 42.0616 44.88C44.057 39.4903 49.6594 35.8547 55.9695 35.8547H58.0305C64.3406 35.8547 69.943 39.4903 71.9382 44.88C72.6512 46.8058 73.0149 48.8227 73.0149 50.8528V74.0926C73.0149 81.3171 71.1467 88.4423 67.5582 94.9042L65.2834 99L71.3069 94.1016C78.5556 88.2068 83.8008 80.5834 86.4345 72.1147L94 47.7878H90.1342V43.1025C90.1342 34.3232 86.2606 25.9035 79.3657 19.6955L76.7971 17.383C71.5466 12.6558 64.4254 10 57 10C49.5746 10 42.4533 12.6558 37.2027 17.3831L34.6344 19.6955C27.7393 25.9035 23.8657 34.3232 23.8657 43.1025V47.7878H20L27.5655 72.1147C30.1992 80.5834 35.4443 88.2068 42.6931 94.1016Z" fill="white"/>
    </svg>
    